<svg width="180" height="30" viewBox="0 0 180 30" fill="none" xmlns="http://www.w3.org/2000/svg">
<g id="Logo">
<g id="Logo_2">
<path fill-rule="evenodd" clip-rule="evenodd" d="M83.9497 8.86712L84.0394 8.79506C84.0985 8.74759 84.1857 8.67773 84.297 8.5887C84.5198 8.41062 84.8395 8.15591 85.2261 7.85014C86 7.23818 87.0395 6.4237 88.1063 5.61046C89.1765 4.79463 90.2599 3.99094 91.1255 3.39543C91.5163 3.12656 91.8451 2.9124 92.0987 2.76175C92.3348 2.90932 92.6379 3.11663 92.9972 3.37653C93.8179 3.97007 94.8422 4.7721 95.854 5.5875C96.8623 6.40005 97.8435 7.21398 98.5735 7.82563C98.9383 8.13121 99.2397 8.38576 99.4497 8.56372C99.5547 8.65268 99.6368 8.72247 99.6925 8.76989L99.7757 8.8408L99.7766 8.84159C100.347 9.32895 101.229 9.28963 101.748 8.75354C102.266 8.21744 102.224 7.38776 101.654 6.9004L100.715 7.87109C101.654 6.9004 101.654 6.90048 101.654 6.9004L101.654 6.9L101.566 6.82497C101.508 6.77631 101.425 6.70517 101.318 6.61478C101.105 6.43403 100.799 6.17614 100.43 5.86679C99.6922 5.24859 98.6967 4.4227 97.6701 3.59544C96.6471 2.77103 95.5785 1.93325 94.6987 1.29693C94.2616 0.980837 93.8482 0.69771 93.4986 0.487905C93.3256 0.384106 93.1414 0.281901 92.9609 0.201096C92.8368 0.145525 92.5067 0 92.1111 0C91.7221 0 91.393 0.141564 91.2713 0.194407C91.0908 0.272713 90.9039 0.372374 90.7258 0.474879C90.3659 0.68203 89.9359 0.962762 89.4776 1.27803C88.5556 1.91238 87.4297 2.7485 86.3488 3.57248C85.2645 4.39906 84.2112 5.22438 83.4298 5.84228C83.0389 6.15144 82.7154 6.40918 82.4895 6.5898C82.3765 6.68012 82.2878 6.75119 82.2273 6.7998L82.1354 6.87368L82.1341 6.87467C82.1341 6.87474 82.1337 6.87506 82.9784 7.80164L82.1337 6.87506C81.5486 7.34657 81.4808 8.17474 81.9823 8.72483C82.4838 9.27492 83.3647 9.33863 83.9497 8.86712ZM92.4708 2.56498C92.4705 2.56559 92.4609 2.5697 92.4433 2.5755C92.4624 2.56726 92.4712 2.56437 92.4708 2.56498ZM91.7627 2.57062C91.7289 2.55888 91.7257 2.55405 91.7611 2.56993L91.7627 2.57062Z" fill="url(#paint0_linear_544:1218)"/>
<path d="M20.6414 10.4606L17.4875 24.9695L13.6155 10.4606H10.6305L6.71621 24.9431L3.53411 10.4606H0L4.73091 29.7352H8.15238L12.137 15.6632L16.0372 29.7352H19.4446L24.1755 10.4606H20.6414Z" fill="url(#paint1_linear_544:1218)"/>
<path fill-rule="evenodd" clip-rule="evenodd" d="M26.2453 18.655C25.6539 19.7758 25.3583 21.0378 25.3583 22.4411V22.5999C25.3583 24.8416 26.0013 26.6375 27.2872 27.9878C28.5826 29.3293 30.3051 30 32.4546 30C33.8626 30 35.1017 29.6955 36.1718 29.0866C37.2512 28.4776 38.0773 27.6171 38.6499 26.5052C39.2319 25.3932 39.5228 24.1311 39.5228 22.7191L39.5088 21.9645C39.4055 19.9082 38.7109 18.2578 37.4249 17.0135C36.1483 15.7691 34.4822 15.1469 32.4265 15.1469C31.0372 15.1469 29.8076 15.4514 28.7375 16.0603C27.6674 16.6605 26.8367 17.5253 26.2453 18.655ZM29.7513 26.1874C29.1036 25.349 28.7797 24.1929 28.7797 22.7191C28.7797 21.0599 29.1083 19.8155 29.7653 18.9859C30.4224 18.1475 31.3094 17.7283 32.4265 17.7283C33.5623 17.7283 34.4587 18.1519 35.1158 18.9992C35.7822 19.8464 36.1155 20.9937 36.1155 22.4411C36.1155 24.0738 35.7916 25.3137 35.1439 26.161C34.5056 27.0082 33.6092 27.4318 32.4546 27.4318C31.3001 27.4318 30.3989 27.017 29.7513 26.1874Z" fill="url(#paint2_linear_544:1218)"/>
<path d="M48.9987 18.2446C49.4775 18.2446 49.9421 18.2799 50.3927 18.3505L50.4068 15.3322C50.0876 15.2087 49.684 15.1469 49.1959 15.1469C47.7315 15.1469 46.5864 15.7691 45.7603 17.0135L45.6758 15.4117H42.4093V29.7352H45.8307V19.9391C46.3752 18.8094 47.4312 18.2446 48.9987 18.2446Z" fill="url(#paint3_linear_544:1218)"/>
<path d="M55.9825 25.0622L57.5031 23.5928L62.0228 29.7352H65.9793L59.7137 21.382L65.3739 15.4117H61.2625L57.0526 19.8729L55.9825 21.1305V9.40158H52.561V29.7352H55.9825V25.0622Z" fill="url(#paint4_linear_544:1218)"/>
<path fill-rule="evenodd" clip-rule="evenodd" d="M76.3282 28.3982C76.4409 29.016 76.5723 29.4617 76.7225 29.7352H80.2143V29.5102C79.8295 28.7424 79.637 27.7142 79.637 26.4257V19.9656C79.6089 18.4388 79.0645 17.2562 78.0038 16.4178C76.9431 15.5705 75.521 15.1469 73.7375 15.1469C72.5641 15.1469 71.4987 15.3411 70.5413 15.7294C69.5932 16.1177 68.8423 16.656 68.2885 17.3444C67.7347 18.024 67.4578 18.7565 67.4578 19.5419H70.8792C70.8792 18.9771 71.128 18.5138 71.6255 18.1519C72.123 17.7813 72.7613 17.5959 73.5404 17.5959C74.4415 17.5959 75.1126 17.821 75.5538 18.2711C75.995 18.7123 76.2156 19.3036 76.2156 20.045V20.9849H74.1176C71.8742 20.9849 70.1471 21.3953 68.9362 22.216C67.7347 23.028 67.1339 24.1973 67.1339 25.7241C67.1339 26.9332 67.6173 27.9481 68.5842 28.7689C69.551 29.5896 70.7994 30 72.3295 30C73.9064 30 75.2394 29.4661 76.3282 28.3982ZM74.8639 26.9552C74.2725 27.2641 73.6389 27.4186 72.9631 27.4186C72.2309 27.4186 71.6442 27.2377 71.2031 26.8758C70.7713 26.5052 70.5554 26.0109 70.5554 25.3932C70.5554 24.6342 70.8745 24.0473 71.5128 23.6325C72.1511 23.2177 73.1039 23.0103 74.3711 23.0103H76.2156V25.7109C75.9152 26.2316 75.4646 26.6464 74.8639 26.9552Z" fill="url(#paint5_linear_544:1218)"/>
<path d="M96.2797 29.7352H99.8279V10.4606H96.2797V18.4829H87.1136V10.4606H83.5513V29.7352H87.1136V21.1702H96.2797V29.7352Z" fill="url(#paint6_linear_544:1218)"/>
<path fill-rule="evenodd" clip-rule="evenodd" d="M103.967 18.655C103.376 19.7758 103.08 21.0378 103.08 22.4411V22.5999C103.08 24.8416 103.723 26.6375 105.009 27.9878C106.305 29.3293 108.027 30 110.177 30C111.585 30 112.824 29.6955 113.894 29.0866C114.973 28.4776 115.799 27.6171 116.372 26.5052C116.954 25.3932 117.245 24.1311 117.245 22.7191L117.231 21.9645C117.128 19.9082 116.433 18.2578 115.147 17.0135C113.87 15.7691 112.204 15.1469 110.149 15.1469C108.759 15.1469 107.53 15.4514 106.46 16.0603C105.39 16.6605 104.559 17.5253 103.967 18.655ZM107.473 26.1874C106.826 25.349 106.502 24.1929 106.502 22.7191C106.502 21.0599 106.83 19.8155 107.487 18.9859C108.145 18.1475 109.032 17.7283 110.149 17.7283C111.284 17.7283 112.181 18.1519 112.838 18.9992C113.504 19.8464 113.838 20.9937 113.838 22.4411C113.838 24.0738 113.514 25.3137 112.866 26.161C112.228 27.0082 111.331 27.4318 110.177 27.4318C109.022 27.4318 108.121 27.017 107.473 26.1874Z" fill="url(#paint7_linear_544:1218)"/>
<path d="M123.454 16.9076L123.356 15.4117H120.131V29.7352H123.553V19.3566C124.125 18.3064 125.097 17.7813 126.467 17.7813C128.251 17.7813 129.166 18.6241 129.213 20.3097V29.7352H132.635L132.62 19.9126C132.818 19.2772 133.16 18.7653 133.648 18.377C134.146 17.9798 134.784 17.7813 135.563 17.7813C136.539 17.7813 137.239 17.9931 137.661 18.4167C138.084 18.8403 138.295 19.5066 138.295 20.4156V29.7352H141.716V20.323C141.697 18.6197 141.275 17.3312 140.449 16.4575C139.632 15.5838 138.384 15.1469 136.704 15.1469C134.695 15.1469 133.137 15.8794 132.029 17.3444C131.278 15.8794 129.884 15.1469 127.847 15.1469C125.989 15.1469 124.524 15.7338 123.454 16.9076Z" fill="url(#paint8_linear_544:1218)"/>
<path d="M145.447 29.7352H148.869V15.4117H145.447V29.7352Z" fill="url(#paint9_linear_544:1218)"/>
<path d="M145.729 10.4606C145.4 10.7872 145.236 11.1975 145.236 11.6918C145.236 12.1772 145.4 12.5831 145.729 12.9097C146.067 13.2274 146.546 13.3862 147.165 13.3862C147.785 13.3862 148.263 13.2274 148.601 12.9097C148.939 12.5831 149.108 12.1772 149.108 11.6918C149.108 11.1975 148.939 10.7872 148.601 10.4606C148.263 10.1341 147.785 9.97082 147.165 9.97082C146.546 9.97082 146.067 10.1341 145.729 10.4606Z" fill="url(#paint10_linear_544:1218)"/>
<path fill-rule="evenodd" clip-rule="evenodd" d="M154.036 28.0805C155.388 29.3602 157.148 30 159.316 30C160.584 30 161.724 29.7661 162.738 29.2984C163.761 28.8218 164.578 28.1555 165.188 27.2994L163.343 25.6447C162.358 26.8361 161.081 27.4318 159.513 27.4318C158.396 27.4318 157.467 27.0876 156.726 26.3992C155.993 25.7109 155.576 24.7754 155.472 23.5928H165.427V22.2955C165.427 20.0185 164.859 18.2578 163.723 17.0135C162.597 15.7691 160.997 15.1469 158.922 15.1469C157.617 15.1469 156.435 15.4602 155.374 16.0868C154.313 16.7134 153.487 17.5915 152.896 18.7212C152.314 19.842 152.023 21.1173 152.023 22.547V22.9441C152.023 25.0799 152.694 26.792 154.036 28.0805ZM156.627 18.655C157.209 18.0372 157.969 17.7283 158.908 17.7283C159.856 17.7283 160.598 18.0063 161.133 18.5623C161.668 19.1095 161.973 19.9214 162.048 20.9981V21.2364H155.529C155.688 20.1332 156.054 19.2728 156.627 18.655Z" fill="url(#paint11_linear_544:1218)"/>
<path d="M175.875 24.5327C176.381 24.8327 176.635 25.2696 176.635 25.8432C176.635 26.3639 176.4 26.7876 175.931 27.1141C175.462 27.4318 174.776 27.5907 173.875 27.5907C172.946 27.5907 172.2 27.3877 171.636 26.9817C171.073 26.5669 170.768 25.98 170.721 25.2211H167.398C167.398 26.0771 167.671 26.8758 168.215 27.6171C168.759 28.3585 169.52 28.941 170.496 29.3646C171.472 29.7882 172.584 30 173.833 30C175.673 30 177.161 29.6029 178.296 28.8086C179.432 28.0055 180 26.9597 180 25.6712C180 24.9033 179.812 24.2503 179.437 23.7119C179.071 23.1736 178.503 22.7147 177.733 22.3352C176.973 21.9468 175.921 21.6159 174.579 21.3423C173.237 21.0599 172.345 20.7819 171.904 20.5083C171.463 20.2347 171.242 19.8508 171.242 19.3566C171.242 18.8094 171.477 18.3726 171.946 18.046C172.425 17.7195 173.04 17.5562 173.791 17.5562C174.598 17.5562 175.246 17.7636 175.734 18.1784C176.222 18.5844 176.466 19.0963 176.466 19.714H179.887C179.887 18.3637 179.324 17.265 178.198 16.4178C177.081 15.5705 175.612 15.1469 173.791 15.1469C172.082 15.1469 170.674 15.5617 169.567 16.3913C168.459 17.2209 167.905 18.2534 167.905 19.489C167.905 20.9628 168.759 22.0881 170.468 22.8647C171.247 23.2177 172.218 23.5089 173.382 23.7384C174.546 23.9679 175.377 24.2326 175.875 24.5327Z" fill="url(#paint12_linear_544:1218)"/>
</g>
</g>
<defs>
<linearGradient id="paint0_linear_544:1218" x1="-4.68921e-08" y1="20.5523" x2="179.992" y2="19.5629" gradientUnits="userSpaceOnUse">
<stop stop-color="#805AD5"/>
<stop offset="0.489583" stop-color="#D53F8C"/>
<stop offset="1" stop-color="#ED8936"/>
</linearGradient>
<linearGradient id="paint1_linear_544:1218" x1="-4.68921e-08" y1="20.5523" x2="179.992" y2="19.5629" gradientUnits="userSpaceOnUse">
<stop stop-color="#805AD5"/>
<stop offset="0.489583" stop-color="#D53F8C"/>
<stop offset="1" stop-color="#ED8936"/>
</linearGradient>
<linearGradient id="paint2_linear_544:1218" x1="-4.68921e-08" y1="20.5523" x2="179.992" y2="19.5629" gradientUnits="userSpaceOnUse">
<stop stop-color="#805AD5"/>
<stop offset="0.489583" stop-color="#D53F8C"/>
<stop offset="1" stop-color="#ED8936"/>
</linearGradient>
<linearGradient id="paint3_linear_544:1218" x1="-4.68921e-08" y1="20.5523" x2="179.992" y2="19.5629" gradientUnits="userSpaceOnUse">
<stop stop-color="#805AD5"/>
<stop offset="0.489583" stop-color="#D53F8C"/>
<stop offset="1" stop-color="#ED8936"/>
</linearGradient>
<linearGradient id="paint4_linear_544:1218" x1="-4.68921e-08" y1="20.5523" x2="179.992" y2="19.5629" gradientUnits="userSpaceOnUse">
<stop stop-color="#805AD5"/>
<stop offset="0.489583" stop-color="#D53F8C"/>
<stop offset="1" stop-color="#ED8936"/>
</linearGradient>
<linearGradient id="paint5_linear_544:1218" x1="-4.68921e-08" y1="20.5523" x2="179.992" y2="19.5629" gradientUnits="userSpaceOnUse">
<stop stop-color="#805AD5"/>
<stop offset="0.489583" stop-color="#D53F8C"/>
<stop offset="1" stop-color="#ED8936"/>
</linearGradient>
<linearGradient id="paint6_linear_544:1218" x1="-4.68921e-08" y1="20.5523" x2="179.992" y2="19.5629" gradientUnits="userSpaceOnUse">
<stop stop-color="#805AD5"/>
<stop offset="0.489583" stop-color="#D53F8C"/>
<stop offset="1" stop-color="#ED8936"/>
</linearGradient>
<linearGradient id="paint7_linear_544:1218" x1="-4.68921e-08" y1="20.5523" x2="179.992" y2="19.5629" gradientUnits="userSpaceOnUse">
<stop stop-color="#805AD5"/>
<stop offset="0.489583" stop-color="#D53F8C"/>
<stop offset="1" stop-color="#ED8936"/>
</linearGradient>
<linearGradient id="paint8_linear_544:1218" x1="-4.68921e-08" y1="20.5523" x2="179.992" y2="19.5629" gradientUnits="userSpaceOnUse">
<stop stop-color="#805AD5"/>
<stop offset="0.489583" stop-color="#D53F8C"/>
<stop offset="1" stop-color="#ED8936"/>
</linearGradient>
<linearGradient id="paint9_linear_544:1218" x1="-4.68921e-08" y1="20.5523" x2="179.992" y2="19.5629" gradientUnits="userSpaceOnUse">
<stop stop-color="#805AD5"/>
<stop offset="0.489583" stop-color="#D53F8C"/>
<stop offset="1" stop-color="#ED8936"/>
</linearGradient>
<linearGradient id="paint10_linear_544:1218" x1="-4.68921e-08" y1="20.5523" x2="179.992" y2="19.5629" gradientUnits="userSpaceOnUse">
<stop stop-color="#805AD5"/>
<stop offset="0.489583" stop-color="#D53F8C"/>
<stop offset="1" stop-color="#ED8936"/>
</linearGradient>
<linearGradient id="paint11_linear_544:1218" x1="-4.68921e-08" y1="20.5523" x2="179.992" y2="19.5629" gradientUnits="userSpaceOnUse">
<stop stop-color="#805AD5"/>
<stop offset="0.489583" stop-color="#D53F8C"/>
<stop offset="1" stop-color="#ED8936"/>
</linearGradient>
<linearGradient id="paint12_linear_544:1218" x1="-4.68921e-08" y1="20.5523" x2="179.992" y2="19.5629" gradientUnits="userSpaceOnUse">
<stop stop-color="#805AD5"/>
<stop offset="0.489583" stop-color="#D53F8C"/>
<stop offset="1" stop-color="#ED8936"/>
</linearGradient>
</defs>
</svg>
